# Blender v2.79 (sub 0) OBJ File: 'fence1.blend'
# www.blender.org
o Cube.004
v -1.641089 2.199594 1.176129
v -1.641089 2.199594 0.628545
v -1.460415 2.199594 0.628545
v -1.460416 2.199594 1.176130
v -1.641089 0.368648 1.176129
v -1.641089 0.368648 0.628544
v -1.460415 0.368648 0.628545
v -1.460415 0.368648 1.176129
v -1.640385 2.381560 0.899884
v -1.641089 2.382662 0.900978
v -1.460149 2.382221 0.899929
v -1.459981 2.381262 0.899542
v -1.641845 2.204128 0.281791
v -1.641845 2.204128 -0.265794
v -1.461172 2.204128 -0.265794
v -1.461172 2.204128 0.281791
v -1.641846 0.373181 0.281791
v -1.641845 0.373181 -0.265794
v -1.461172 0.373181 -0.265794
v -1.461172 0.373181 0.281791
v -1.641142 2.386093 0.005546
v -1.641845 2.387195 0.006640
v -1.460906 2.386754 0.005591
v -1.460737 2.385795 0.005204
v -1.449604 0.936037 1.473723
v -1.449604 1.433587 1.473723
v -1.449604 0.936037 -1.486571
v -1.449604 1.433587 -1.486571
v -1.292457 0.936037 1.473723
v -1.292457 1.433587 1.473723
v -1.292457 0.936037 -1.486571
v -1.292457 1.433587 -1.486571
v -1.634789 2.200364 -0.629062
v -1.634789 2.200364 -1.176647
v -1.454116 2.200364 -1.176647
v -1.454116 2.200364 -0.629062
v -1.634789 0.369417 -0.629062
v -1.634789 0.369417 -1.176647
v -1.454116 0.369417 -1.176646
v -1.454116 0.369417 -0.629062
v -1.634085 2.382330 -0.905307
v -1.634789 2.383432 -0.904213
v -1.453849 2.382991 -0.905262
v -1.453681 2.382032 -0.905649
vt 0.160487 0.291236
vt 0.163150 0.209236
vt 0.170837 0.261851
vt 0.651319 0.758058
vt 0.569998 0.949210
vt 0.567481 0.760575
vt 0.251043 0.463624
vt 0.223848 0.243453
vt 0.265348 0.285642
vt 0.170134 0.401515
vt 0.048948 0.182871
vt 0.555206 0.261604
vt 0.638694 0.328403
vt 0.567034 0.413476
vt 0.197500 0.240514
vt 0.309567 0.125447
vt 0.309567 0.302805
vt 0.171889 0.261103
vt 0.163487 0.207245
vt 0.186252 0.204729
vt 0.189361 0.283361
vt 0.200762 0.253228
vt 0.226373 0.232640
vt 0.585299 0.463085
vt 0.621418 0.866229
vt 0.612063 0.888029
vt 0.200944 0.527830
vt 0.142348 0.613913
vt 0.175468 0.552109
vt 0.567189 0.760584
vt 0.485868 0.951736
vt 0.483351 0.763101
vt 0.539588 0.162598
vt 0.664303 0.139826
vt 0.632981 0.044603
vt 0.401515 0.541385
vt 0.182871 0.662571
vt 0.291236 0.551032
vt 0.135480 0.537579
vt 0.248079 0.702282
vt 0.182762 0.746540
vt 0.240514 0.514019
vt 0.125447 0.401952
vt 0.302805 0.401952
vt 0.261103 0.539630
vt 0.209236 0.548370
vt 0.207245 0.548032
vt 0.204729 0.525267
vt 0.604008 0.607563
vt 0.569194 0.629606
vt 0.536704 0.627370
vt 0.239260 0.605124
vt 0.245610 0.396598
vt 0.249050 0.395814
vt 0.798398 0.017673
vt 0.679983 0.979145
vt 0.678009 0.017690
vt 0.825583 0.054627
vt 0.762464 0.010149
vt 0.825611 0.010237
vt 0.418244 0.050602
vt 0.293651 0.933661
vt 0.297023 0.050574
vt 0.761887 0.937626
vt 0.825006 0.982104
vt 0.761860 0.982016
vt 0.878459 0.982416
vt 0.946396 0.011684
vt 0.947856 0.982181
vt 0.762437 0.054539
vt 0.589345 0.435150
vt 0.559555 0.240735
vt 0.590865 0.313036
vt 0.564663 0.571292
vt 0.483342 0.762444
vt 0.480826 0.573809
vt 0.640102 0.481137
vt 0.587858 0.389725
vt 0.671529 0.382743
vt 0.559771 0.504377
vt 0.551399 0.207073
vt 0.555564 0.001336
vt 0.592912 0.053537
vt 0.624446 0.321008
vt 0.649248 0.071875
vt 0.667664 0.408764
vt 0.591918 0.312287
vt 0.559892 0.238743
vt 0.580290 0.390220
vt 0.633501 0.365938
vt 0.653836 0.946693
vt 0.154592 0.283191
vt 0.000219 0.352786
vt 0.672505 0.205237
vt 0.199710 0.253977
vt 0.661585 0.864358
vt 0.178351 0.722032
vt 0.569706 0.949219
vt 0.656967 0.347465
vt 0.352786 0.711300
vt 0.260632 0.573177
vt 0.261851 0.540682
vt 0.570434 0.629804
vt 0.234534 0.360143
vt 0.800369 0.979127
vt 0.414869 0.933689
vt 0.825034 0.937715
vt 0.876999 0.011918
vt 0.567180 0.759927
vt 0.533229 0.382982
vt 0.478114 0.484016
vn 0.0012 -0.8300 0.5577
vn 0.0000 1.0000 0.0000
vn 1.0000 0.0000 0.0000
vn -0.0000 -0.0000 1.0000
vn -1.0000 0.0000 -0.0000
vn 0.0000 0.0000 -1.0000
vn -0.0011 0.3739 -0.9275
vn -0.0024 -0.8358 -0.5490
vn 1.0000 -0.0039 0.0000
vn -0.9602 -0.2311 0.1568
vn -0.9601 -0.2317 0.1568
vn 0.0000 -1.0000 0.0000
vn -0.0011 0.3739 -0.9274
vn -0.9600 -0.2320 0.1569
vn -0.0000 -0.8296 0.5583
vn -0.0024 0.7040 -0.7102
vn 0.0000 -0.8351 -0.5501
vn 0.3966 0.7620 -0.5119
vn -1.0000 0.0024 -0.0000
vn -0.0024 0.7039 -0.7103
vn 0.3970 0.7617 -0.5121
vn 0.3968 0.7619 -0.5120
s off
f 2/1/1 11/2/1 10/3/1
f 5/4/2 7/5/2 6/6/2
f 5/7/3 2/8/3 1/9/3
f 6/10/4 3/11/4 2/1/4
f 7/12/5 4/13/5 3/14/5
f 1/15/6 8/16/6 5/17/6
f 9/18/7 11/2/7 12/19/7
f 4/20/8 9/18/8 12/19/8
f 2/21/9 9/22/9 1/23/9
f 3/24/10 12/25/10 11/26/10
f 14/27/1 23/28/1 22/29/1
f 17/30/2 19/31/2 18/32/2
f 17/33/3 14/34/3 13/35/3
f 18/36/4 15/37/4 14/38/4
f 19/39/5 16/40/5 15/41/5
f 13/42/6 20/43/6 17/44/6
f 21/45/7 23/46/7 24/47/7
f 16/48/8 21/45/8 24/47/8
f 14/49/9 21/50/9 13/51/9
f 15/52/11 24/53/11 23/54/11
f 26/55/5 27/56/5 25/57/5
f 28/58/6 31/59/6 27/60/6
f 32/61/3 29/62/3 31/63/3
f 30/64/4 25/65/4 29/66/4
f 31/67/12 25/68/12 27/69/12
f 28/58/2 30/64/2 32/70/2
f 34/71/1 43/72/1 42/73/1
f 37/74/2 39/75/2 38/76/2
f 37/77/3 34/78/3 33/79/3
f 38/80/4 35/81/4 34/71/4
f 39/82/5 36/83/5 35/81/5
f 33/84/6 40/85/6 37/86/6
f 41/87/13 43/72/13 44/88/13
f 36/83/8 41/87/8 44/88/8
f 34/89/9 41/87/9 33/90/9
f 35/81/14 44/88/14 43/72/14
f 2/1/15 3/11/15 11/2/15
f 5/4/2 8/91/2 7/5/2
f 5/7/3 6/92/3 2/8/3
f 6/10/4 7/93/4 3/11/4
f 7/12/5 8/94/5 4/13/5
f 1/15/6 4/20/6 8/16/6
f 9/18/16 10/3/16 11/2/16
f 4/20/17 1/15/17 9/18/17
f 2/21/18 10/95/18 9/22/18
f 3/24/19 4/96/19 12/25/19
f 14/27/15 15/97/15 23/28/15
f 17/30/2 20/98/2 19/31/2
f 17/33/3 18/99/3 14/34/3
f 18/36/4 19/100/4 15/37/4
f 19/39/5 20/101/5 16/40/5
f 13/42/6 16/48/6 20/43/6
f 21/45/20 22/102/20 23/46/20
f 16/48/17 13/42/17 21/45/17
f 14/49/21 22/103/21 21/50/21
f 15/52/19 16/104/19 24/53/19
f 26/55/5 28/105/5 27/56/5
f 28/58/6 32/70/6 31/59/6
f 32/61/3 30/106/3 29/62/3
f 30/64/4 26/107/4 25/65/4
f 31/67/12 29/108/12 25/68/12
f 28/58/2 26/107/2 30/64/2
f 34/71/15 35/81/15 43/72/15
f 37/74/2 40/109/2 39/75/2
f 37/77/3 38/110/3 34/78/3
f 38/80/4 39/111/4 35/81/4
f 39/82/5 40/85/5 36/83/5
f 33/84/6 36/83/6 40/85/6
f 41/87/16 42/73/16 43/72/16
f 36/83/17 33/84/17 41/87/17
f 34/89/22 42/73/22 41/87/22
f 35/81/19 36/83/19 44/88/19
