# Blender v2.79 (sub 0) OBJ File: ''
# www.blender.org
mtllib newrock1.mtl
o Box001
v 0.853564 0.830967 -0.584305
v 0.766712 0.686505 -0.957318
v 1.188434 0.562927 -0.818867
v 1.377674 0.672187 -0.527388
v 0.076306 0.897401 -0.604357
v 0.094328 0.748978 -1.000967
v -0.705666 0.814629 -0.517654
v -0.586771 0.686812 -0.892677
v -1.268968 0.702656 -0.446626
v -1.040605 0.612229 -0.744155
v 0.931702 0.897381 -0.024834
v 1.475913 0.706725 -0.031380
v 0.077365 0.951793 -0.011506
v -0.799865 0.860050 0.010694
v -1.417451 0.736075 0.028360
v 0.915264 0.834948 0.540310
v 1.429017 0.676019 0.469629
v 0.111191 0.884379 0.586266
v -0.740947 0.825066 0.550945
v -1.348691 0.661601 0.492810
v 0.870675 0.683911 0.923899
v 1.286089 0.573908 0.784873
v 0.157424 0.706537 0.969993
v -0.627310 0.681603 0.922978
v -1.165640 0.601495 0.808797
v 0.840325 -0.751126 -0.558976
v 1.360335 -0.570224 -0.505762
v 1.181830 -0.463756 -0.795736
v 0.752057 -0.561451 -0.902669
v 0.076969 -0.848870 -0.588722
v 0.092456 -0.617943 -0.940653
v -0.702844 -0.768683 -0.509396
v -0.572433 -0.591930 -0.860733
v -1.242223 -0.600574 -0.421980
v -1.027099 -0.507405 -0.717340
v 0.930098 -0.875567 -0.025765
v 1.464862 -0.636945 -0.031826
v 0.076781 -0.951793 -0.008714
v -0.800855 -0.862516 0.008714
v -1.408212 -0.658343 0.024735
v 0.913086 -0.809371 0.540864
v 1.418045 -0.596782 0.468143
v 0.108963 -0.853762 0.573502
v -0.740957 -0.796656 0.547885
v -1.338808 -0.600881 0.492829
v 0.873299 -0.622963 0.919859
v 1.308953 -0.546776 0.812648
v 0.152136 -0.635955 0.960784
v -0.625488 -0.618072 0.921354
v -1.161431 -0.525110 0.798211
v 0.842691 0.420762 -1.167927
v 1.348740 0.350288 -0.937910
v 0.116479 0.461311 -1.215180
v -0.619418 0.435516 -1.080105
v -1.156955 0.378608 -0.808440
v 0.886003 0.072801 -1.173244
v 1.434938 0.054927 -0.971192
v 0.127579 0.053898 -1.350770
v -0.656205 0.042867 -1.163748
v -1.240262 0.036519 -0.886003
v 0.823808 -0.295153 -1.079402
v 1.334263 -0.256287 -0.903362
v 0.114964 -0.338712 -1.185008
v -0.619438 -0.342475 -1.069906
v -1.182949 -0.318403 -0.849465
v -1.578717 0.442418 -0.480125
v -1.756609 0.432555 0.048243
v -1.714376 0.433842 0.555609
v -1.345195 0.375023 0.906006
v -1.653122 0.046401 -0.471352
v -1.913687 0.072701 0.056967
v -1.817616 0.038598 0.563144
v -1.442791 0.034162 0.969964
v -1.537118 -0.325473 -0.445111
v -1.747044 -0.335504 0.043292
v -1.692988 -0.313442 0.548598
v -1.352473 -0.304560 0.916948
v -0.691912 0.423643 1.136953
v 0.191161 0.450507 1.220933
v 0.979757 0.438942 1.160273
v 1.443731 0.364072 0.899104
v -0.746502 0.048144 1.218765
v 0.203608 0.054065 1.350770
v 1.033713 0.045461 1.208585
v 1.503897 0.046827 0.948209
v -0.698665 -0.340505 1.141369
v 0.187735 -0.362805 1.236707
v 0.972320 -0.339485 1.137537
v 1.437532 -0.303332 0.903312
v 1.712039 0.414345 0.517595
v 1.812784 0.445349 -0.031578
v 1.694602 0.422019 -0.589623
v 1.838391 0.044193 0.558540
v 1.913687 0.053462 -0.029479
v 1.748232 0.066028 -0.590850
v 1.712535 -0.334435 0.516297
v 1.815358 -0.356200 -0.031726
v 1.623980 -0.295470 -0.543934
vt 0.188000 0.573600
vt 0.101400 0.573200
vt 0.122100 0.623300
vt 0.315900 0.589400
vt 0.193500 0.622000
vt 0.387100 0.654900
vt 0.438200 0.624100
vt 0.459100 0.683900
vt 0.514000 0.663600
vt 0.184800 0.446100
vt 0.119100 0.388100
vt 0.082900 0.425100
vt 0.315400 0.512000
vt 0.141900 0.499800
vt 0.397000 0.606400
vt 0.461500 0.550000
vt 0.497300 0.609800
vt 0.557700 0.560800
vt 0.240200 0.390500
vt 0.171000 0.350700
vt 0.362500 0.441300
vt 0.493800 0.479400
vt 0.582700 0.494500
vt 0.283200 0.352200
vt 0.221600 0.321800
vt 0.384000 0.388200
vt 0.488800 0.416400
vt 0.568900 0.433400
vt 0.140700 0.902900
vt 0.159400 0.850800
vt 0.093100 0.845300
vt 0.257200 0.915100
vt 0.248600 0.859300
vt 0.376800 0.917600
vt 0.342800 0.866600
vt 0.453800 0.909300
vt 0.413600 0.867700
vt 0.128100 0.976300
vt 0.061800 0.891300
vt 0.264300 0.994800
vt 0.406900 0.988200
vt 0.495800 0.964400
vt 0.240700 0.073600
vt 0.315200 0.063300
vt 0.293500 0.001400
vt 0.452400 0.085300
vt 0.452600 0.012100
vt 0.583200 0.133000
vt 0.604000 0.072700
vt 0.674000 0.183100
vt 0.688700 0.121000
vt 0.266400 0.116600
vt 0.337900 0.115300
vt 0.445200 0.138700
vt 0.558800 0.182200
vt 0.631300 0.213200
vt 0.158500 0.666900
vt 0.269800 0.674700
vt 0.290500 0.632900
vt 0.380600 0.698700
vt 0.460600 0.723300
vt 0.133900 0.728200
vt 0.081700 0.663600
vt 0.248700 0.736500
vt 0.368800 0.758600
vt 0.449900 0.776500
vt 0.062100 0.794700
vt 0.138100 0.797200
vt 0.244100 0.805800
vt 0.354300 0.819800
vt 0.433200 0.828400
vt 0.540000 0.724400
vt 0.641800 0.724300
vt 0.583300 0.657800
vt 0.635400 0.551500
vt 0.655300 0.466400
vt 0.621200 0.401400
vt 0.523100 0.795400
vt 0.604500 0.822600
vt 0.648900 0.878000
vt 0.676000 0.764900
vt 0.658700 0.350100
vt 0.494400 0.863500
vt 0.560100 0.907600
vt 0.597600 0.977300
vt 0.660700 0.997400
vt 0.680600 0.956300
vt 0.549300 0.998800
vt 0.658300 0.280300
vt 0.529900 0.375500
vt 0.401200 0.337900
vt 0.284200 0.297400
vt 0.218700 0.275900
vt 0.563700 0.311300
vt 0.421500 0.266200
vt 0.294300 0.228600
vt 0.226700 0.214700
vt 0.563700 0.237800
vt 0.435300 0.193100
vt 0.311600 0.164800
vt 0.241200 0.156700
vt 0.160600 0.291700
vt 0.086600 0.315000
vt 0.025100 0.340800
vt 0.168800 0.204200
vt 0.100700 0.211500
vt 0.030600 0.227600
vt 0.055500 0.726600
vt 0.040200 0.615200
vt 0.192200 0.127100
vt 0.128700 0.108400
vt 0.074900 0.093500
vt 0.040600 0.095400
vt 0.001300 0.166300
vt 0.195800 0.029800
vt 0.130200 0.007200
vt 0.259600 0.571200
vt 0.049900 0.956200
vt 0.710400 0.414600
vt 0.712700 0.238700
vt 0.001100 0.681100
vt 0.017100 0.847400
vn 0.2053 0.9382 -0.2787
vn 0.4182 0.8438 -0.3362
vn 0.3949 0.7228 -0.5671
vn -0.0222 0.9724 -0.2322
vn 0.2036 0.7948 -0.5717
vn -0.2250 0.7717 -0.5948
vn -0.1835 0.9499 -0.2532
vn -0.4309 0.6410 -0.6352
vn -0.4035 0.8317 -0.3815
vn 0.1974 0.9803 -0.0096
vn 0.4896 0.8715 -0.0286
vn -0.0150 0.9999 0.0008
vn -0.1673 0.9858 -0.0108
vn -0.4627 0.8863 -0.0187
vn 0.2041 0.9451 0.2552
vn 0.4942 0.8332 0.2481
vn 0.0009 0.9644 0.2645
vn -0.1766 0.9556 0.2357
vn -0.4147 0.8703 0.2658
vn 0.2073 0.8339 0.5114
vn 0.4420 0.7464 0.4974
vn 0.0057 0.8152 0.5791
vn -0.1389 0.7915 0.5952
vn -0.3653 0.7459 0.5570
vn 0.2268 -0.8965 -0.3805
vn 0.2161 -0.7324 -0.6457
vn 0.3823 -0.6894 -0.6153
vn -0.0003 -0.9312 -0.3644
vn -0.0017 -0.7533 -0.6576
vn -0.2228 -0.9064 -0.3588
vn -0.1946 -0.7463 -0.6366
vn -0.4474 -0.8092 -0.3808
vn -0.3376 -0.7434 -0.5774
vn 0.2480 -0.9670 -0.0587
vn 0.4944 -0.7880 -0.3670
vn -0.0036 -0.9997 -0.0221
vn -0.2220 -0.9740 -0.0451
vn -0.5281 -0.8459 -0.0749
vn 0.5387 -0.8224 0.1832
vn 0.2191 -0.9373 0.2709
vn -0.0023 -0.9450 0.3269
vn -0.1988 -0.9327 0.3008
vn -0.4834 -0.8300 0.2782
vn 0.4598 -0.7129 0.5294
vn 0.1707 -0.7877 0.5919
vn 0.0028 -0.7973 0.6036
vn -0.1498 -0.7604 0.6319
vn -0.3511 -0.7452 0.5669
vn 0.2890 0.3872 -0.8755
vn -0.0398 0.4610 -0.8865
vn -0.0247 0.7923 -0.6097
vn -0.3055 0.4072 -0.8608
vn -0.4860 0.3916 -0.7813
vn 0.3012 -0.1076 -0.9475
vn 0.4738 0.4039 -0.7825
vn -0.0245 -0.0584 -0.9980
vn -0.3193 -0.0090 -0.9476
vn -0.5678 0.0420 -0.8221
vn 0.5129 -0.4694 -0.7187
vn 0.2525 -0.4454 -0.8590
vn -0.0163 -0.5093 -0.8605
vn -0.2465 -0.4654 -0.8501
vn -0.5394 -0.4401 -0.7179
vn -0.7214 0.4738 -0.5051
vn -0.8135 0.5671 -0.1292
vn -0.7383 0.5749 0.3528
vn -0.4827 0.4733 0.7369
vn -0.8342 -0.0421 -0.5499
vn -0.9913 0.0229 -0.1299
vn -0.9055 -0.0748 0.4177
vn -0.5599 -0.0186 0.8283
vn -0.7444 -0.4709 -0.4734
vn -0.8337 -0.5444 -0.0932
vn -0.7473 -0.5371 0.3912
vn -0.4701 -0.4728 0.7453
vn -0.2161 0.4551 0.8638
vn -0.0089 0.5144 0.8575
vn 0.2906 0.4651 0.8362
vn 0.5739 0.4366 0.6928
vn -0.2454 0.0075 0.9694
vn 0.0075 0.0179 0.9998
vn 0.3401 -0.0125 0.9403
vn 0.6519 0.0159 0.7581
vn -0.2082 -0.4376 0.8747
vn 0.0126 -0.4869 0.8733
vn 0.2814 -0.4281 0.8588
vn 0.6270 -0.3613 0.6902
vn 0.7631 0.5333 0.3651
vn 0.8463 0.5327 -0.0046
vn 0.7802 0.4699 -0.4129
vn 0.9151 0.0068 0.4033
vn 0.9975 -0.0082 -0.0699
vn 0.8838 -0.0993 -0.4572
vn 0.5938 -0.0559 -0.8027
vn 0.8013 -0.5042 0.3220
vn 0.8463 -0.5227 -0.1030
vn 0.7349 -0.5115 -0.4454
vn 0.5370 -0.8416 -0.0579
usemtl rock1_mat
s 1
f 1/1/1 4/2/2 3/3/3
f 5/4/4 1/1/1 2/5/5
f 8/6/6 7/7/7 5/4/4
f 10/8/8 9/9/9 7/7/7
f 11/10/10 12/11/11 4/12/2
f 13/13/12 11/10/10 1/14/1
f 7/15/7 14/16/13 13/13/12
f 9/17/9 15/18/14 14/16/13
f 11/10/10 16/19/15 17/20/16
f 13/13/12 18/21/17 16/19/15
f 19/22/18 18/21/17 13/13/12
f 20/23/19 19/22/18 14/16/13
f 16/19/15 21/24/20 22/25/21
f 18/21/17 23/26/22 21/24/20
f 24/27/23 23/26/22 18/21/17
f 25/28/24 24/27/23 19/22/18
f 26/29/25 29/30/26 28/31/27
f 30/32/28 31/33/29 29/30/26
f 30/32/28 32/34/30 33/35/31
f 32/34/30 34/36/32 35/37/33
f 36/38/34 26/29/25 27/39/35
f 38/40/36 30/32/28 26/29/25
f 38/40/36 39/41/37 32/34/30
f 39/41/37 40/42/38 34/36/32
f 42/43/39 41/44/40 36/45/34
f 41/44/40 43/46/41 38/47/36
f 44/48/42 39/49/37 38/47/36
f 45/50/43 40/51/38 39/49/37
f 47/52/44 46/53/45 41/44/40
f 46/53/45 48/54/46 43/46/41
f 49/55/47 44/48/42 43/46/41
f 50/56/48 45/50/43 44/48/42
f 51/57/49 2/5/5 3/3/3
f 53/58/50 6/59/51 2/5/5
f 54/60/52 8/6/6 6/59/51
f 54/60/52 55/61/53 10/8/8
f 56/62/54 51/57/49 52/63/55
f 58/64/56 53/58/50 51/57/49
f 58/64/56 59/65/57 54/60/52
f 59/65/57 60/66/58 55/61/53
f 62/67/59 61/68/60 56/62/54
f 61/68/60 63/69/61 58/64/56
f 63/69/61 64/70/62 59/65/57
f 65/71/63 60/66/58 59/65/57
f 28/31/27 29/30/26 61/68/60
f 29/30/26 31/33/29 63/69/61
f 31/33/29 33/35/31 64/70/62
f 35/37/33 65/71/63 64/70/62
f 55/61/53 66/72/64 9/9/9
f 66/72/64 67/73/65 15/74/14
f 67/75/65 68/76/66 20/23/19
f 69/77/67 25/28/24 20/23/19
f 60/66/58 70/78/68 66/72/64
f 70/78/68 71/79/69 67/73/65
f 71/79/69 72/80/70 68/81/66
f 73/82/71 69/77/67 68/76/66
f 74/83/72 70/78/68 60/66/58
f 75/84/73 71/79/69 70/78/68
f 75/84/73 76/85/74 72/80/70
f 76/85/74 77/86/75 73/87/71
f 34/36/32 74/83/72 65/71/63
f 40/42/38 75/84/73 74/83/72
f 45/88/43 76/85/74 75/84/73
f 45/50/43 50/56/48 77/89/75
f 78/90/76 24/27/23 25/28/24
f 79/91/77 23/26/22 24/27/23
f 79/91/77 80/92/78 21/24/20
f 80/92/78 81/93/79 22/25/21
f 82/94/80 78/90/76 69/77/67
f 83/95/81 79/91/77 78/90/76
f 83/95/81 84/96/82 80/92/78
f 84/96/82 85/97/83 81/93/79
f 77/89/75 86/98/84 82/94/80
f 86/98/84 87/99/85 83/95/81
f 88/100/86 84/96/82 83/95/81
f 89/101/87 85/97/83 84/96/82
f 50/56/48 49/55/47 86/98/84
f 49/55/47 48/54/46 87/99/85
f 46/53/45 88/100/86 87/99/85
f 47/52/44 89/101/87 88/100/86
f 90/102/88 17/20/16 22/25/21
f 90/102/88 91/103/89 12/11/11
f 92/104/90 4/12/2 12/11/11
f 52/63/55 3/3/3 4/2/2
f 85/97/83 93/105/91 90/102/88
f 94/106/92 91/103/89 90/102/88
f 95/107/93 92/104/90 91/103/89
f 57/108/94 52/63/55 92/109/90
f 96/110/95 93/105/91 85/97/83
f 96/110/95 97/111/96 94/106/92
f 98/112/97 95/107/93 94/106/92
f 98/112/97 62/113/59 57/114/94
f 47/52/44 42/43/39 96/110/95
f 37/115/98 97/111/96 96/110/95
f 37/115/98 27/116/35 98/112/97
f 27/39/35 28/31/27 62/67/59
f 1/1/1 3/3/3 2/5/5
f 5/4/4 2/5/5 6/59/51
f 8/6/6 5/4/4 6/59/51
f 10/8/8 7/7/7 8/6/6
f 11/10/10 4/12/2 1/14/1
f 13/13/12 1/14/1 5/117/4
f 7/15/7 13/13/12 5/117/4
f 9/17/9 14/16/13 7/15/7
f 11/10/10 17/20/16 12/11/11
f 13/13/12 16/19/15 11/10/10
f 19/22/18 13/13/12 14/16/13
f 20/23/19 14/16/13 15/18/14
f 16/19/15 22/25/21 17/20/16
f 18/21/17 21/24/20 16/19/15
f 24/27/23 18/21/17 19/22/18
f 25/28/24 19/22/18 20/23/19
f 26/29/25 28/31/27 27/39/35
f 30/32/28 29/30/26 26/29/25
f 30/32/28 33/35/31 31/33/29
f 32/34/30 35/37/33 33/35/31
f 36/38/34 27/39/35 37/118/98
f 38/40/36 26/29/25 36/38/34
f 38/40/36 32/34/30 30/32/28
f 39/41/37 34/36/32 32/34/30
f 42/43/39 36/45/34 37/115/98
f 41/44/40 38/47/36 36/45/34
f 44/48/42 38/47/36 43/46/41
f 45/50/43 39/49/37 44/48/42
f 47/52/44 41/44/40 42/43/39
f 46/53/45 43/46/41 41/44/40
f 49/55/47 43/46/41 48/54/46
f 50/56/48 44/48/42 49/55/47
f 51/57/49 3/3/3 52/63/55
f 53/58/50 2/5/5 51/57/49
f 54/60/52 6/59/51 53/58/50
f 54/60/52 10/8/8 8/6/6
f 56/62/54 52/63/55 57/108/94
f 58/64/56 51/57/49 56/62/54
f 58/64/56 54/60/52 53/58/50
f 59/65/57 55/61/53 54/60/52
f 62/67/59 56/62/54 57/108/94
f 61/68/60 58/64/56 56/62/54
f 63/69/61 59/65/57 58/64/56
f 65/71/63 59/65/57 64/70/62
f 28/31/27 61/68/60 62/67/59
f 29/30/26 63/69/61 61/68/60
f 31/33/29 64/70/62 63/69/61
f 35/37/33 64/70/62 33/35/31
f 55/61/53 9/9/9 10/8/8
f 66/72/64 15/74/14 9/9/9
f 67/75/65 20/23/19 15/18/14
f 69/77/67 20/23/19 68/76/66
f 60/66/58 66/72/64 55/61/53
f 70/78/68 67/73/65 66/72/64
f 71/79/69 68/81/66 67/73/65
f 73/82/71 68/76/66 72/119/70
f 74/83/72 60/66/58 65/71/63
f 75/84/73 70/78/68 74/83/72
f 75/84/73 72/80/70 71/79/69
f 76/85/74 73/87/71 72/80/70
f 34/36/32 65/71/63 35/37/33
f 40/42/38 74/83/72 34/36/32
f 45/88/43 75/84/73 40/42/38
f 45/50/43 77/89/75 76/120/74
f 78/90/76 25/28/24 69/77/67
f 79/91/77 24/27/23 78/90/76
f 79/91/77 21/24/20 23/26/22
f 80/92/78 22/25/21 21/24/20
f 82/94/80 69/77/67 73/82/71
f 83/95/81 78/90/76 82/94/80
f 83/95/81 80/92/78 79/91/77
f 84/96/82 81/93/79 80/92/78
f 77/89/75 82/94/80 73/82/71
f 86/98/84 83/95/81 82/94/80
f 88/100/86 83/95/81 87/99/85
f 89/101/87 84/96/82 88/100/86
f 50/56/48 86/98/84 77/89/75
f 49/55/47 87/99/85 86/98/84
f 46/53/45 87/99/85 48/54/46
f 47/52/44 88/100/86 46/53/45
f 90/102/88 22/25/21 81/93/79
f 90/102/88 12/11/11 17/20/16
f 92/104/90 12/11/11 91/103/89
f 52/63/55 4/2/2 92/109/90
f 85/97/83 90/102/88 81/93/79
f 94/106/92 90/102/88 93/105/91
f 95/107/93 91/103/89 94/106/92
f 57/108/94 92/109/90 95/121/93
f 96/110/95 85/97/83 89/101/87
f 96/110/95 94/106/92 93/105/91
f 98/112/97 94/106/92 97/111/96
f 98/112/97 57/114/94 95/107/93
f 47/52/44 96/110/95 89/101/87
f 37/115/98 96/110/95 42/43/39
f 37/115/98 98/112/97 97/111/96
f 27/39/35 62/67/59 98/122/97
